<svg width="847" height="104" viewBox="0 0 847 104" fill="none" xmlns="http://www.w3.org/2000/svg">
<path d="M4.45871 44.8876L60.6383 68.9645V37.9766H56.1797V62.2318L0 38.1103V69.1432H4.45871V44.8876Z" fill="#F2F2F2"/>
<path d="M78.4626 69.1445H85.0168L111.859 44.0417L133.885 64.6853H100.266L95.9852 69.1445H145.21L111.859 37.8887L78.4626 69.1445Z" fill="#F2F2F2"/>
<path d="M167.524 69.1445V60.8508H212.379C218.71 60.8508 223.838 55.7235 223.838 49.3921C223.838 43.1054 218.71 37.8887 212.379 37.8887H163.066V42.3474H212.379C216.169 42.3474 219.379 45.5131 219.379 49.3921C219.379 53.182 216.169 56.3923 212.379 56.3923H163.066V69.1445H167.524Z" fill="#F2F2F2"/>
<path d="M246.117 69.1445V60.8508H290.971C297.303 60.8508 302.431 55.7235 302.431 49.3921C302.431 43.1054 297.303 37.8887 290.971 37.8887H241.658V42.3474H290.971C294.762 42.3474 297.972 45.5131 297.972 49.3921C297.972 53.182 294.762 56.3923 290.971 56.3923H241.658V69.1445H246.117Z" fill="#F2F2F2"/>
<path d="M553.143 42.3474V37.8887H613.067V42.3474H553.143ZM553.143 69.1445V64.6853H613.067V69.1445H553.143ZM553.143 55.7681V51.3094H613.067V55.7681H553.143ZM553.143 42.3474V37.8887H613.067V42.3474H553.143Z" fill="#F2F2F2"/>
<path d="M691.682 49.3921C691.682 50.9676 691.382 52.4538 690.789 53.8508C690.195 55.2479 689.377 56.4666 688.334 57.507C687.297 58.5472 686.075 59.3648 684.681 59.9594C683.281 60.554 681.8 60.8508 680.221 60.8508H677.277L685.885 69.1445H679.466L670.858 60.8508H635.365V69.1445H630.911V56.3923H680.221C681.172 56.3923 682.065 56.214 682.895 55.8573C683.759 55.4708 684.502 54.9655 685.125 54.3413C685.781 53.6874 686.289 52.9442 686.64 52.1119C687.026 51.25 687.222 50.3433 687.222 49.3921C687.222 48.4112 687.026 47.5046 686.64 46.6724C686.289 45.8103 685.781 45.0672 685.125 44.443C684.502 43.789 683.759 43.2837 682.895 42.927C682.065 42.5406 681.172 42.3474 680.221 42.3474H630.951V37.8887H680.221C681.8 37.8887 683.281 38.2008 684.681 38.825C686.075 39.4195 687.297 40.2369 688.334 41.2773C689.377 42.3177 690.195 43.5364 690.789 44.9334C691.382 46.3305 691.682 47.8167 691.682 49.3921Z" fill="#F2F2F2"/>
<path d="M713.964 55.6789V69.0552H709.504V37.8887H713.964V51.2202H748.028L762.473 37.8887H769.024L752.171 53.4496L769.163 69.0995H762.56L748.028 55.6789H713.964Z" fill="#F2F2F2"/>
<path d="M787.007 69.1445V64.6853H838.017C839.262 64.6853 840.317 64.2543 841.181 63.3924C842.045 62.5304 842.471 61.4754 842.471 60.2268C842.471 58.9782 842.045 57.9232 841.181 57.0611C840.317 56.1991 839.262 55.7681 838.017 55.7681H795.927C794.705 55.7681 793.547 55.5303 792.447 55.0547C791.375 54.5791 790.441 53.94 789.641 53.1374C788.834 52.3349 788.194 51.3986 787.722 50.3285C787.244 49.2287 787.007 48.0694 787.007 46.8507C787.007 45.6022 787.244 44.443 787.722 43.3729C788.194 42.2731 788.834 41.3219 789.641 40.5193C790.441 39.7168 791.375 39.0776 792.447 38.6021C793.547 38.1265 794.705 37.8887 795.927 37.8887H845.018V42.3919H795.927C795.299 42.3919 794.723 42.5109 794.187 42.7487C793.651 42.9865 793.178 43.3134 792.758 43.7296C792.372 44.116 792.061 44.5767 791.824 45.1118C791.588 45.6468 791.467 46.2264 791.467 46.8507C791.467 48.0991 791.899 49.1543 792.758 50.0163C793.622 50.8784 794.676 51.3094 795.927 51.3094H838.017C839.262 51.3094 840.42 51.5472 841.492 52.0228C842.592 52.4687 843.543 53.0928 844.344 53.8954C845.151 54.698 845.773 55.6492 846.217 56.749C846.695 57.8189 846.931 58.9782 846.931 60.2268C846.931 61.4454 846.695 62.6047 846.217 63.7047C845.773 64.7746 845.151 65.711 844.344 66.5136C843.543 67.3162 842.592 67.9552 841.492 68.4306C840.42 68.9065 839.262 69.1445 838.017 69.1445H787.007Z" fill="#F2F2F2"/>
<path d="M476.431 69.1437L443.667 34.5723H450.895L476.431 61.5161L486.148 51.2746L470.328 34.5723H477.557L489.762 47.4501L501.967 34.5723H509.196L493.376 51.2746L503.093 61.5161L528.629 34.5723H535.857L503.093 69.1437L489.762 55.0774L476.431 69.1437Z" fill="#F2F2F2"/>
<path fill-rule="evenodd" clip-rule="evenodd" d="M377.362 0.235963L376.654 0L375.943 0.224698L338.377 12.0875C333.83 13.5232 330.247 17.0505 328.739 21.5738C328.454 22.4297 328.36 23.3472 328.479 24.2555C332.583 55.7438 348.12 82.9524 371.04 99.4816C372.716 100.69 374.716 101.283 376.718 101.283C378.588 101.283 380.472 100.763 382.08 99.6879C400.173 87.6017 410.287 69.5681 415.877 54.1339C421.458 38.721 422.619 25.6479 422.619 23.1101C422.619 19.8248 421.001 17.3081 418.883 15.49C416.807 13.7087 414.158 12.501 411.702 11.6827L377.362 0.235963ZM339.762 16.4725L376.616 4.83438L410.248 16.0451C412.427 16.7713 414.449 17.7446 415.888 18.9794C417.283 20.1772 418.021 21.5114 418.021 23.1101C418.021 25.0917 416.961 37.6358 411.553 52.5681C406.153 67.4794 396.509 84.5191 379.526 95.8643C378.727 96.3978 377.745 96.6848 376.718 96.6848C375.617 96.6848 374.572 96.3586 373.73 95.7513C359.322 85.3609 347.899 70.4583 340.672 52.7637L362.625 60.2211C364.15 60.7391 365.807 59.9227 366.325 58.3969C366.843 56.8718 366.027 55.2153 364.501 54.6972L339.041 46.0485C338.737 45.9454 338.428 45.8952 338.125 45.8928C337.181 43.0698 336.34 40.1859 335.606 37.2476L362.625 46.4254C364.15 46.9436 365.807 46.1271 366.325 44.6018C366.843 43.0765 366.026 41.4199 364.501 40.9018L335.192 30.9459C334.858 30.8324 334.517 30.7829 334.183 30.791C333.734 28.4437 333.352 26.066 333.039 23.6611C333.012 23.4553 333.032 23.2376 333.102 23.0277C333.145 22.8995 333.19 22.7724 333.237 22.6464L333.316 22.6743L362.625 32.6302C364.15 33.1483 365.807 32.3318 366.325 30.8065C366.843 29.2812 366.026 27.6246 364.501 27.1065L337.06 17.7853C337.882 17.2243 338.79 16.7793 339.762 16.4725Z" fill="#F2F2F2"/>
</svg>
